<svg width="329" height="165" viewBox="0 0 329 165" fill="none" xmlns="http://www.w3.org/2000/svg">
<path d="M72.0627 120.962H153.562V123.107H55.5483L72.0627 120.962Z" fill="#FFC80B"/>
<path d="M129.112 12.8683L153.991 31.8626V111.525H129.112H74.6363L71.4192 107.665H129.112V12.8683Z" fill="#101920"/>
<path d="M102.518 53.189L125.895 66.7007V103.375H115.6V65.8428L114.314 104.019L0 103.375L42.0365 101.445L45.0391 99.7294H56.8351L59.8377 97.1557H102.518V53.189Z" fill="#FFC80B"/>
<path d="M189.593 48.8996L215.115 34.3156V96.2979H275.597L283.532 103.804H213.185H203.534L201.604 69.7034L199.673 103.804H189.593V48.8996Z" fill="#101920"/>
<path d="M169.433 6.8631L175.009 0V112.812H169.433V6.8631Z" fill="#101920"/>
<path d="M157.422 37.7471L165.572 42.6799V111.525H157.422V37.7471Z" fill="#FFC80B"/>
<path d="M180.371 53.189L183.802 51.0443L184.66 108.308L219.405 107.665L224.981 108.952H238.707L241.281 111.954H183.802H180.371V53.189Z" fill="#FFC80B"/>
<path d="M195.169 121.391H235.705L249.645 122.678H195.169V121.391Z" fill="#FFC80B"/>
<rect x="156.994" y="121.391" width="5.57627" height="1.71578" fill="#FFC80B"/>
<rect x="166.859" y="121.391" width="5.57627" height="1.71578" fill="#FFC80B"/>
<rect x="176.725" y="121.391" width="5.57627" height="1.71578" fill="#FFC80B"/>
<rect x="186.162" y="120.962" width="5.57627" height="1.71578" fill="#FFC80B"/>
<path d="M105.207 163.675L105.763 133.656H109.877L115.177 158.005L120.514 133.656H124.59L125.146 163.675H121.774L121.44 141.884L116.363 163.675H113.991L108.951 141.884L108.617 163.675H105.207ZM128.117 163.675L134.491 133.656H138.531L144.942 163.675H140.977L139.606 156.115H133.491L132.045 163.675H128.117ZM134.047 153.113H139.05L136.53 139.586L134.047 153.113ZM155.367 164.009C153.242 164.009 151.587 163.564 150.401 162.675C149.24 161.785 148.424 160.587 147.955 159.08C147.51 157.573 147.288 155.893 147.288 154.039V143.44C147.288 141.414 147.51 139.648 147.955 138.14C148.424 136.633 149.24 135.472 150.401 134.657C151.587 133.817 153.242 133.397 155.367 133.397C157.245 133.397 158.727 133.743 159.814 134.434C160.926 135.126 161.717 136.114 162.186 137.399C162.68 138.684 162.927 140.228 162.927 142.032V144.404H158.962V142.291C158.962 141.179 158.9 140.203 158.776 139.363C158.678 138.499 158.381 137.832 157.887 137.362C157.393 136.893 156.565 136.658 155.404 136.658C154.218 136.658 153.353 136.917 152.81 137.436C152.266 137.93 151.908 138.647 151.735 139.586C151.587 140.5 151.513 141.575 151.513 142.81V154.707C151.513 156.214 151.636 157.412 151.883 158.301C152.13 159.166 152.538 159.784 153.106 160.155C153.674 160.525 154.44 160.71 155.404 160.71C156.54 160.71 157.356 160.463 157.85 159.969C158.344 159.45 158.653 158.746 158.776 157.857C158.9 156.967 158.962 155.93 158.962 154.744V152.52H162.927V154.744C162.927 156.572 162.705 158.19 162.26 159.599C161.815 160.982 161.05 162.069 159.962 162.86C158.875 163.626 157.343 164.009 155.367 164.009ZM166.917 163.675V133.656H178.554V136.769H171.105V146.701H177.146V149.666H171.105V160.673H178.628V163.675H166.917ZM182.231 163.675V133.656H186.345V163.675H182.231ZM198.873 164.009C196.847 164.009 195.229 163.614 194.018 162.823C192.808 162.032 191.943 160.908 191.424 159.45C190.905 157.968 190.646 156.238 190.646 154.262V142.884C190.646 140.908 190.905 139.215 191.424 137.807C191.968 136.374 192.832 135.287 194.018 134.546C195.229 133.78 196.847 133.397 198.873 133.397C200.899 133.397 202.505 133.78 203.691 134.546C204.877 135.311 205.73 136.399 206.248 137.807C206.792 139.215 207.064 140.908 207.064 142.884V154.299C207.064 156.251 206.792 157.956 206.248 159.413C205.73 160.871 204.877 162.008 203.691 162.823C202.505 163.614 200.899 164.009 198.873 164.009ZM198.873 160.71C199.985 160.71 200.825 160.488 201.393 160.043C201.962 159.574 202.345 158.932 202.542 158.116C202.74 157.276 202.839 156.3 202.839 155.188V142.032C202.839 140.92 202.74 139.969 202.542 139.178C202.345 138.363 201.962 137.745 201.393 137.325C200.825 136.88 199.985 136.658 198.873 136.658C197.762 136.658 196.909 136.88 196.316 137.325C195.748 137.745 195.365 138.363 195.167 139.178C194.97 139.969 194.871 140.92 194.871 142.032V155.188C194.871 156.3 194.97 157.276 195.167 158.116C195.365 158.932 195.748 159.574 196.316 160.043C196.909 160.488 197.762 160.71 198.873 160.71ZM197.836 131.877L200.022 124.539H203.988L199.837 131.877H197.836Z" fill="#FFC80B"/>
<path d="M222.947 163.675V136.769H217.87V133.656H232.064V136.769H227.135V163.675H222.947ZM235.18 163.675V133.656H239.294V163.675H235.18Z" fill="#101920"/>
</svg>
